_RobotoSerifTextWide-HairlineWidth730.ufo
<glyph name="percent" format="2">
  <advance width="855.2944"/>
  <unicode hex="0025"/>
  <outline>
    <contour>
      <point x="219.946" y="720.0" type="curve" smooth="yes"/>
      <point x="126.4736" y="720.0"/>
      <point x="58.724399999999996" y="648.0"/>
      <point x="58.724399999999996" y="551.0" type="curve" smooth="yes"/>
      <point x="58.724399999999996" y="453.0"/>
      <point x="126.4736" y="382.0"/>
      <point x="219.946" y="382.0" type="curve" smooth="yes"/>
      <point x="314.044" y="382.0"/>
      <point x="381.7932" y="454.0"/>
      <point x="381.7932" y="551.0" type="curve" smooth="yes"/>
      <point x="381.7932" y="649.0"/>
      <point x="314.044" y="720.0"/>
    </contour>
    <contour>
      <point x="219.946" y="412.782" type="curve" smooth="yes"/>
      <point x="148.3752" y="412.782"/>
      <point x="104.81560000000002" y="469.46"/>
      <point x="104.81560000000002" y="551.0" type="curve" smooth="yes"/>
      <point x="104.81560000000002" y="632.54"/>
      <point x="148.3752" y="689.218"/>
      <point x="219.946" y="689.218" type="curve" smooth="yes"/>
      <point x="292.1424" y="689.218"/>
      <point x="335.702" y="632.54"/>
      <point x="335.702" y="551.0" type="curve" smooth="yes"/>
      <point x="335.702" y="469.46"/>
      <point x="292.1424" y="412.782"/>
    </contour>
    <contour>
      <point x="628.3059999999999" y="328.0" type="curve" smooth="yes"/>
      <point x="534.2908" y="328.0"/>
      <point x="466.4588" y="256.0"/>
      <point x="466.4588" y="159.0" type="curve" smooth="yes"/>
      <point x="466.4588" y="61.0"/>
      <point x="534.2908" y="-10.0"/>
      <point x="628.3059999999999" y="-10.0" type="curve" smooth="yes"/>
      <point x="721.7784" y="-10.0"/>
      <point x="789.6104" y="62.0"/>
      <point x="789.6104" y="159.0" type="curve" smooth="yes"/>
      <point x="789.6104" y="257.0"/>
      <point x="721.7784" y="328.0"/>
    </contour>
    <contour>
      <point x="628.3059999999999" y="20.782" type="curve" smooth="yes"/>
      <point x="556.1096" y="20.782"/>
      <point x="512.55" y="77.46"/>
      <point x="512.55" y="159.0" type="curve" smooth="yes"/>
      <point x="512.55" y="240.54"/>
      <point x="556.1096" y="297.218"/>
      <point x="628.3059999999999" y="297.218" type="curve" smooth="yes"/>
      <point x="699.9596" y="297.218"/>
      <point x="743.5192" y="240.54"/>
      <point x="743.5192" y="159.0" type="curve" smooth="yes"/>
      <point x="743.5192" y="77.46"/>
      <point x="699.9596" y="20.782"/>
    </contour>
    <component base="fraction" xOffset="215.64720000000003"/>
  </outline>
</glyph>
<glyph name="parenleft" format="2">
  <advance width="365.9008"/>
  <unicode hex="0028"/>
  <outline>
    <contour>
      <point x="111.62880000000001" y="310.0" type="curve" smooth="yes"/>
      <point x="111.62880000000001" y="106.23"/>
      <point x="220.4776" y="-48.0"/>
      <point x="334.4424" y="-127.0" type="curve"/>
      <point x="334.4424" y="-130.0" type="line"/>
      <point x="298.73120000000006" y="-130.0" type="line"/>
      <point x="177.0424" y="-52.862"/>
      <point x="70.7364" y="110.368"/>
      <point x="70.7364" y="310.0" type="curve" smooth="yes"/>
      <point x="70.7364" y="509.632"/>
      <point x="177.0424" y="672.862"/>
      <point x="298.73120000000006" y="750.0" type="curve"/>
      <point x="334.4424" y="750.0" type="line"/>
      <point x="334.4424" y="747.0" type="line"/>
      <point x="220.4776" y="668.0"/>
      <point x="111.62880000000001" y="513.77"/>
    </contour>
  </outline>
</glyph>
<glyph name="zero" format="2">
  <advance width="650.1600000000001"/>
  <unicode hex="0030"/>
  <outline>
    <contour>
      <point x="325.08000000000004" y="-11.0" type="curve" smooth="yes"/>
      <point x="482.3679569720944" y="-11.0"/>
      <point x="603.3888" y="121.77"/>
      <point x="603.3888" y="304.0" type="curve" smooth="yes"/>
      <point x="603.3888" y="486.23"/>
      <point x="482.4148" y="619.0"/>
      <point x="325.08000000000004" y="619.0" type="curve" smooth="yes"/>
      <point x="167.7452" y="619.0"/>
      <point x="46.7712" y="486.23"/>
      <point x="46.7712" y="304.0" type="curve" smooth="yes"/>
      <point x="46.7712" y="121.77"/>
      <point x="167.7920430279056" y="-11.0"/>
    </contour>
    <contour>
      <point x="325.08000000000004" y="20.334" type="curve" smooth="yes"/>
      <point x="182.76958451615042" y="20.334"/>
      <point x="90.7096" y="135.598"/>
      <point x="90.7096" y="304.0" type="curve" smooth="yes"/>
      <point x="90.7096" y="471.448"/>
      <point x="182.7792" y="587.712"/>
      <point x="325.08000000000004" y="587.712" type="curve" smooth="yes"/>
      <point x="467.3808" y="587.712"/>
      <point x="559.4504" y="471.448"/>
      <point x="559.4504" y="304.0" type="curve" smooth="yes"/>
      <point x="559.4504" y="134.598"/>
      <point x="467.3904154838496" y="20.334"/>
    </contour>
  </outline>
</glyph>
<glyph name="A" format="2">
  <advance width="785"/>
  <unicode hex="0041"/>
  <anchor x="383.4556" y="721.0" name="top"/>
  <anchor x="618.95" y="0.0" name="right"/>
  <anchor x="383.4556" y="0.0" name="bottom"/>
  <outline>
    <contour>
      <point x="207.2348" y="298.092" type="line"/>
      <point x="207.8972" y="266.896" type="line"/>
      <point x="573.1596" y="266.896" type="line"/>
      <point x="573.3252" y="298.092" type="line"/>
    </contour>
    <contour>
      <point x="381.5624" y="702.528" type="line"/>
      <point x="654.1408" y="40.782000000000004" type="line"/>
      <point x="654.1408" y="33.782000000000004"/>
      <point x="598.8636" y="30.782"/>
      <point x="554.3408" y="30.782" type="curve" smooth="yes"/>
      <point x="534.5808" y="30.782" type="line"/>
      <point x="534.5808" y="0.0" type="line"/>
      <point x="773.0732" y="0.0" type="line"/>
      <point x="773.0732" y="30.782" type="line"/>
      <point x="767.1532" y="30.782" type="line"/>
      <point x="727.6332" y="30.782"/>
      <point x="701.9532" y="32.782000000000004"/>
      <point x="691.5732" y="58.782000000000004" type="curve" smooth="yes"/>
      <point x="421.154" y="710.0" type="line"/>
      <point x="360.0048" y="710.0" type="line"/>
      <point x="99.0484" y="73.782" type="line" smooth="yes"/>
      <point x="83.7484" y="36.782000000000004"/>
      <point x="60.4456" y="30.782"/>
      <point x="17.465600000000002" y="30.782" type="curve"/>
      <point x="12.0884" y="30.782" type="line"/>
      <point x="12.0884" y="0.0" type="line"/>
      <point x="244.602" y="0.0" type="line"/>
      <point x="244.602" y="30.782" type="line"/>
      <point x="226.84199999999998" y="30.782" type="line" smooth="yes"/>
      <point x="182.862" y="30.782"/>
      <point x="129.502" y="37.782000000000004"/>
      <point x="129.502" y="48.782000000000004" type="curve"/>
      <point x="393.9056" y="690.654" type="line"/>
    </contour>
  </outline>
</glyph>
<glyph name="I" format="2">
  <advance width="368"/>
  <unicode hex="0049"/>
  <anchor x="183.6964" y="741.0" name="top"/>
  <anchor x="238.3572" y="0.0" name="right"/>
  <anchor x="183.6964" y="0.0" name="bottom"/>
  <outline>
    <contour>
      <point x="163.54000000000002" y="66.782" type="line" smooth="yes"/>
      <point x="163.54000000000002" y="37.782000000000004"/>
      <point x="122.02000000000001" y="30.782"/>
      <point x="65.2" y="30.782" type="curve" smooth="yes"/>
      <point x="52.36" y="30.782" type="line"/>
      <point x="52.36" y="0.0" type="line"/>
      <point x="315.6584" y="0.0" type="line"/>
      <point x="315.6584" y="30.782" type="line"/>
      <point x="302.8184" y="30.782" type="line" smooth="yes"/>
      <point x="246.08120000000002" y="30.782"/>
      <point x="204.01839999999999" y="37.782000000000004"/>
      <point x="204.01839999999999" y="66.782" type="curve" smooth="yes"/>
      <point x="204.01839999999999" y="643.218" type="line" smooth="yes"/>
      <point x="204.01839999999999" y="672.218"/>
      <point x="246.08120000000002" y="679.218"/>
      <point x="302.8184" y="679.218" type="curve" smooth="yes"/>
      <point x="315.6584" y="679.218" type="line"/>
      <point x="315.6584" y="710.0" type="line"/>
      <point x="52.36" y="710.0" type="line"/>
      <point x="52.36" y="679.218" type="line"/>
      <point x="65.2" y="679.218" type="line" smooth="yes"/>
      <point x="122.02000000000001" y="679.218"/>
      <point x="163.54000000000002" y="672.218"/>
      <point x="163.54000000000002" y="643.218" type="curve" smooth="yes"/>
    </contour>
  </outline>
</glyph>
<glyph name="J" format="2">
  <advance width="607.4172"/>
  <unicode hex="004A"/>
  <anchor x="407.05920000000003" y="741.0" name="top"/>
  <outline>
    <contour>
      <point x="279.6336" y="710.0" type="line"/>
      <point x="279.6336" y="679.218" type="line"/>
      <point x="303.85360000000003" y="679.218" type="line" smooth="yes"/>
      <point x="361.2164" y="679.218"/>
      <point x="402.6536" y="672.218"/>
      <point x="402.6536" y="643.218" type="curve" smooth="yes"/>
      <point x="402.6536" y="219.104" type="line" smooth="yes"/>
      <point x="402.6536" y="70.92"/>
      <point x="331.4350903225112" y="21.38"/>
      <point x="228.3324" y="21.38" type="curve" smooth="yes"/>
      <point x="137.9712" y="21.38"/>
      <point x="92.95160000000001" y="56.827999999999996"/>
      <point x="61.900800000000004" y="90.598" type="curve"/>
      <point x="55.8788" y="84.22"/>
      <point x="55.2992" y="49.518"/>
      <point x="91.5376" y="45.058" type="curve"/>
      <point x="91.5376" y="136.334" type="line"/>
      <point x="38.519999999999996" y="136.334" type="line"/>
      <point x="38.519999999999996" y="57.138" type="line"/>
      <point x="72.706" y="23.954"/>
      <point x="134.5352" y="-10.0"/>
      <point x="228.3324" y="-10.0" type="curve" smooth="yes"/>
      <point x="353.7884" y="-10.0"/>
      <point x="443.546" y="49.184"/>
      <point x="443.546" y="219.104" type="curve" smooth="yes"/>
      <point x="443.546" y="643.218" type="line" smooth="yes"/>
      <point x="443.546" y="672.218"/>
      <point x="485.52599999999995" y="679.218"/>
      <point x="542.346" y="679.218" type="curve" smooth="yes"/>
      <point x="555.1859999999999" y="679.218" type="line"/>
      <point x="555.1859999999999" y="710.0" type="line"/>
    </contour>
  </outline>
</glyph>
<glyph name="bracketleft" format="2">
  <advance width="310.98040000000003"/>
  <unicode hex="005B"/>
  <outline>
    <contour>
      <point x="70.7364" y="750.0" type="line"/>
      <point x="70.7364" y="-130.0" type="line"/>
      <point x="112.7052" y="-130.0" type="line"/>
      <point x="112.7052" y="750.0" type="line"/>
    </contour>
    <contour>
      <point x="281.2608" y="750.0" type="line"/>
      <point x="104.72" y="750.0" type="line"/>
      <point x="104.72" y="719.08" type="line"/>
      <point x="281.2608" y="719.08" type="line"/>
    </contour>
    <contour>
      <point x="281.2608" y="-99.08" type="line"/>
      <point x="104.72" y="-99.08" type="line"/>
      <point x="104.72" y="-130.0" type="line"/>
      <point x="281.2608" y="-130.0" type="line"/>
    </contour>
  </outline>
</glyph>
<glyph name="o" format="2">
  <advance width="644"/>
  <unicode hex="006F"/>
  <anchor x="322.0992" y="551.0" name="top"/>
  <anchor x="423.6204" y="0.0" name="right"/>
  <anchor x="322.0992" y="0.0" name="bottom"/>
  <outline>
    <contour>
      <point x="322.0992" y="-10.0" type="curve"/>
      <point x="479.4404" y="-10.0"/>
      <point x="593.4639999999999" y="97.0"/>
      <point x="593.4639999999999" y="254.0" type="curve" smooth="yes"/>
      <point x="593.4639999999999" y="409.0"/>
      <point x="479.4404" y="518.0"/>
      <point x="322.0992" y="518.0" type="curve" smooth="yes"/>
      <point x="164.67520000000002" y="518.0"/>
      <point x="50.6516" y="410.0"/>
      <point x="50.6516" y="254.0" type="curve" smooth="yes"/>
      <point x="50.6516" y="97.0"/>
      <point x="164.67520000000002" y="-10.0"/>
    </contour>
    <contour>
      <point x="322.0992" y="21.242" type="curve"/>
      <point x="181.9576" y="21.242"/>
      <point x="94.83840000000001" y="112.782"/>
      <point x="94.83840000000001" y="254.0" type="curve" smooth="yes"/>
      <point x="94.83840000000001" y="392.264"/>
      <point x="181.9576" y="486.758"/>
      <point x="322.0992" y="486.758" type="curve" smooth="yes"/>
      <point x="462.158" y="486.758"/>
      <point x="549.2772" y="392.264"/>
      <point x="549.2772" y="254.0" type="curve" smooth="yes"/>
      <point x="549.2772" y="111.782"/>
      <point x="462.158" y="21.242"/>
    </contour>
  </outline>
</glyph>
<glyph name="paragraph" format="2">
  <advance width="684.4048"/>
  <unicode hex="00B6"/>
  <outline>
    <contour>
      <point x="630.8856000000001" y="710.0" type="line"/>
      <point x="630.8856000000001" y="679.218" type="line"/>
      <point x="618.5884" y="679.218" type="line" smooth="yes"/>
      <point x="561.2256" y="679.218"/>
      <point x="519.7884" y="672.218"/>
      <point x="519.7884" y="643.218" type="curve" smooth="yes"/>
      <point x="519.7884" y="0.0" type="line"/>
      <point x="482.66319999999996" y="0.0" type="line"/>
      <point x="482.66319999999996" y="710.0" type="line"/>
    </contour>
    <contour>
      <point x="339.9788" y="0.0" type="line"/>
      <point x="302.85360000000003" y="0.0" type="line"/>
      <point x="302.85360000000003" y="354.54" type="line"/>
      <point x="296.9336" y="354.54" type="line" smooth="yes"/>
      <point x="165.61" y="354.54"/>
      <point x="83.7724" y="430.632"/>
      <point x="83.7724" y="537.77" type="curve" smooth="yes"/>
      <point x="83.7724" y="642.8384406779661"/>
      <point x="166.1068" y="710.0"/>
      <point x="304.0128" y="710.0" type="curve" smooth="yes"/>
      <point x="339.9788" y="710.0" type="line"/>
    </contour>
    <contour>
      <point x="541.636" y="710.0" type="line"/>
      <point x="541.636" y="679.218" type="line"/>
      <point x="321.79200000000003" y="679.218" type="line"/>
      <point x="321.79200000000003" y="710.0" type="line"/>
    </contour>
  </outline>
</glyph>
<glyph name="Oslash" format="2">
  <advance width="861.9264000000001"/>
  <unicode hex="00D8"/>
  <anchor x="421.4852" y="731.0" name="top"/>
  <outline>
    <contour>
      <point x="798.5288" y="720.23" type="line"/>
      <point x="5.5888" y="-10.23" type="line"/>
      <point x="47.1436" y="-10.23" type="line"/>
      <point x="840.0836" y="720.23" type="line"/>
    </contour>
    <contour>
      <point x="430.6104" y="-10.0" type="curve" smooth="yes"/>
      <point x="645.2683999999999" y="-10.0"/>
      <point x="807.4836" y="139.0"/>
      <point x="807.4836" y="355.0" type="curve" smooth="yes"/>
      <point x="807.4836" y="572.0"/>
      <point x="645.2683999999999" y="720.0"/>
      <point x="430.6104" y="720.0" type="curve" smooth="yes"/>
      <point x="217.0352" y="720.0"/>
      <point x="54.36" y="572.0"/>
      <point x="54.36" y="355.0" type="curve" smooth="yes"/>
      <point x="54.36" y="139.0"/>
      <point x="217.0352" y="-10.0"/>
    </contour>
    <contour>
      <point x="430.6104" y="21.38" type="curve" smooth="yes"/>
      <point x="223.6892" y="21.38"/>
      <point x="98.4272" y="140.368"/>
      <point x="98.4272" y="355.0" type="curve" smooth="yes"/>
      <point x="98.4272" y="559.172"/>
      <point x="235.15200000000004" y="688.62"/>
      <point x="430.6104" y="688.62" type="curve" smooth="yes"/>
      <point x="636.9888" y="688.62"/>
      <point x="763.9592" y="569.6320000000001"/>
      <point x="763.9592" y="355.0" type="curve" smooth="yes"/>
      <point x="763.9592" y="150.828"/>
      <point x="625.6088" y="21.38"/>
    </contour>
  </outline>
</glyph>
<glyph name="divide" format="2">
  <advance width="650.1600000000001"/>
  <unicode hex="00F7"/>
  <outline>
    <contour>
      <point x="371.6616" y="175.0" type="curve" smooth="yes"/>
      <point x="371.6616" y="201.46"/>
      <point x="352.978" y="217.828"/>
      <point x="325.08000000000004" y="217.828" type="curve" smooth="yes"/>
      <point x="297.2648" y="217.828"/>
      <point x="278.4984" y="201.46"/>
      <point x="278.4984" y="175.0" type="curve" smooth="yes"/>
      <point x="278.4984" y="148.58599999999998"/>
      <point x="297.2648" y="132.21800000000002"/>
      <point x="325.08000000000004" y="132.21800000000002" type="curve" smooth="yes"/>
      <point x="352.978" y="132.21800000000002"/>
      <point x="371.6616" y="148.58599999999998"/>
    </contour>
    <contour>
      <point x="371.6616" y="508.86199999999997" type="curve" smooth="yes"/>
      <point x="371.6616" y="535.322"/>
      <point x="352.978" y="551.69"/>
      <point x="325.08000000000004" y="551.69" type="curve" smooth="yes"/>
      <point x="297.2648" y="551.69"/>
      <point x="278.4984" y="535.322"/>
      <point x="278.4984" y="508.86199999999997" type="curve" smooth="yes"/>
      <point x="278.4984" y="482.49399999999997"/>
      <point x="297.2648" y="466.08"/>
      <point x="325.08000000000004" y="466.08" type="curve" smooth="yes"/>
      <point x="352.978" y="466.08"/>
      <point x="371.6616" y="482.49399999999997"/>
    </contour>
    <component base="minus" xOffset="28.253200000000007"/>
  </outline>
</glyph>
<glyph name="oslash" format="2">
  <advance width="644.1156000000001"/>
  <unicode hex="00F8"/>
  <anchor x="322.0992" y="551.0" name="top"/>
  <outline>
    <contour>
      <point x="600.9288" y="518.23" type="line"/>
      <point x="-3.5427999999999997" y="-13.092" type="line"/>
      <point x="40.6376" y="-13.092" type="line"/>
      <point x="645.1092" y="518.23" type="line"/>
    </contour>
    <contour>
      <point x="325.8904" y="-10.0" type="curve"/>
      <point x="483.2316" y="-10.0"/>
      <point x="597.2552000000001" y="97.0"/>
      <point x="597.2552000000001" y="254.0" type="curve" smooth="yes"/>
      <point x="597.2552000000001" y="409.046"/>
      <point x="483.2316" y="518.0"/>
      <point x="325.8904" y="518.0" type="curve" smooth="yes"/>
      <point x="168.46640000000002" y="518.0"/>
      <point x="54.442800000000005" y="410.046"/>
      <point x="54.442800000000005" y="254.0" type="curve" smooth="yes"/>
      <point x="54.442800000000005" y="97.0"/>
      <point x="168.46640000000002" y="-10.0"/>
    </contour>
    <contour>
      <point x="325.8904" y="21.242" type="curve"/>
      <point x="182.7856" y="21.242"/>
      <point x="99.5864" y="98.288"/>
      <point x="99.5864" y="254.0" type="curve" smooth="yes"/>
      <point x="99.5864" y="392.402"/>
      <point x="186.0166823529704" y="486.758"/>
      <point x="325.8904" y="486.758" type="curve" smooth="yes"/>
      <point x="468.8880470587456" y="486.758"/>
      <point x="552.6544" y="406.85"/>
      <point x="552.6544" y="254.0" type="curve" smooth="yes"/>
      <point x="552.6544" y="111.782"/>
      <point x="465.618" y="21.242"/>
    </contour>
  </outline>
</glyph>
<glyph name="hbar" format="2">
  <advance width="691.4664"/>
  <unicode hex="0127"/>
  <outline>
    <contour>
      <point x="658.2868" y="0.0" type="line"/>
      <point x="658.2868" y="27.828" type="line"/>
      <point x="656.3696" y="27.828" type="line" smooth="yes"/>
      <point x="600.384" y="27.828"/>
      <point x="560.9467999999999" y="34.827999999999996"/>
      <point x="560.9467999999999" y="63.827999999999996" type="curve" smooth="yes"/>
      <point x="560.9467999999999" y="357.0" type="line" smooth="yes"/>
      <point x="560.9467999999999" y="468.0"/>
      <point x="498.28319999999997" y="518.0"/>
      <point x="390.3516" y="518.0" type="curve" smooth="yes"/>
      <point x="288.2508" y="518.0"/>
      <point x="215.63400000000001" y="467.678"/>
      <point x="143.34199999999998" y="364.988" type="curve"/>
      <point x="152.9464" y="334.264" type="line"/>
      <point x="215.7232" y="427.08"/>
      <point x="287.0088" y="483.62"/>
      <point x="383.2596" y="483.62" type="curve" smooth="yes"/>
      <point x="483.918" y="483.62"/>
      <point x="519.9716000000001" y="441.034"/>
      <point x="519.9716000000001" y="346.0" type="curve" smooth="yes"/>
      <point x="519.9716000000001" y="37.827999999999996" type="line" smooth="yes"/>
      <point x="519.9716000000001" y="30.828"/>
      <point x="467.6116" y="27.828"/>
      <point x="435.0116" y="27.828" type="curve" smooth="yes"/>
      <point x="433.0944" y="27.828" type="line"/>
      <point x="433.0944" y="0.0" type="line"/>
    </contour>
    <contour>
      <point x="137.906" y="735.0" type="line"/>
      <point x="137.906" y="63.827999999999996" type="line" smooth="yes"/>
      <point x="137.906" y="34.827999999999996"/>
      <point x="98.4688" y="27.828"/>
      <point x="42.6488" y="27.828" type="curve" smooth="yes"/>
      <point x="40.1888" y="27.828" type="line"/>
      <point x="40.1888" y="0.0" type="line"/>
      <point x="265.8412" y="0.0" type="line"/>
      <point x="265.8412" y="27.828" type="line"/>
      <point x="262.38120000000004" y="27.828" type="line" smooth="yes"/>
      <point x="229.6984" y="27.828"/>
      <point x="178.8812" y="30.828"/>
      <point x="178.8812" y="37.827999999999996" type="curve"/>
      <point x="178.8812" y="735.0" type="line"/>
    </contour>
    <contour>
      <point x="435.3252" y="632.046" type="line"/>
      <point x="24.5512" y="632.046" type="line"/>
      <point x="24.5512" y="601.034" type="line"/>
      <point x="435.3252" y="601.034" type="line"/>
    </contour>
  </outline>
</glyph>
<glyph name="circumflex" format="2">
  <advance width="580.96"/>
  <unicode hex="02C6"/>
  <anchor x="286.7256" y="529.0" name="_top"/>
  <outline>
    <contour>
      <point x="325.252" y="738.954" type="line"/>
      <point x="441.984" y="605.804" type="line"/>
      <point x="441.984" y="595.804" type="line"/>
      <point x="416.1624" y="595.804" type="line"/>
      <point x="261.3464" y="724.114" type="line"/>
      <point x="311.1048" y="724.114" type="line"/>
      <point x="158.9972" y="595.804" type="line"/>
      <point x="140.14159999999998" y="595.804" type="line"/>
      <point x="140.14159999999998" y="605.804" type="line"/>
      <point x="253.6224" y="738.954" type="line"/>
    </contour>
  </outline>
</glyph>
<glyph name="mu" format="2">
  <advance width="641.052"/>
  <unicode hex="03BC"/>
  <outline>
    <contour>
      <point x="549.5208" y="-10.0" type="curve" smooth="yes"/>
      <point x="607.8836000000001" y="-10.0"/>
      <point x="636.9472" y="25.678"/>
      <point x="653.5020000000001" y="64.0" type="curve"/>
      <point x="631.4348" y="80.736" type="line"/>
      <point x="615.3004000000001" y="50.874"/>
      <point x="592.6664000000001" y="21.334"/>
      <point x="552.0699999999999" y="21.334" type="curve" smooth="yes"/>
      <point x="524.1416" y="21.334"/>
      <point x="503.8848" y="32.38"/>
      <point x="503.8848" y="68.242" type="curve" smooth="yes"/>
      <point x="503.8848" y="508.0" type="line"/>
      <point x="462.9096" y="508.0" type="line"/>
      <point x="462.9096" y="107.95400000000001" type="line"/>
      <point x="461.91600000000005" y="71.104" type="line" smooth="yes"/>
      <point x="462.16440000000006" y="19.413999999999998"/>
      <point x="490.4" y="-10.0"/>
    </contour>
    <contour>
      <point x="99.4448" y="102.95400000000001" type="curve"/>
      <point x="116.91680000000001" y="17.908"/>
      <point x="175.43880000000001" y="-10.046"/>
      <point x="252.03160000000003" y="-10.046" type="curve" smooth="yes"/>
      <point x="355.2024" y="-10.046"/>
      <point x="425.90840000000003" y="40.23"/>
      <point x="498.366" y="142.966" type="curve"/>
      <point x="488.76160000000004" y="173.736" type="line"/>
      <point x="425.442" y="80.87400000000001"/>
      <point x="355.5336" y="24.334"/>
      <point x="260.1632" y="24.334" type="curve" smooth="yes"/>
      <point x="160.1276" y="24.334"/>
      <point x="126.1964" y="67.05799999999999"/>
      <point x="126.1964" y="163.058" type="curve" smooth="yes"/>
      <point x="126.1964" y="508.0" type="line"/>
      <point x="85.22120000000001" y="508.0" type="line"/>
      <point x="85.22120000000001" y="-250.0" type="line"/>
      <point x="131.1164" y="-250.0" type="line"/>
      <point x="131.1164" y="-116.0"/>
      <point x="114.0888" y="-36.0"/>
      <point x="105.3712" y="146.0" type="curve"/>
      <point x="99.2028" y="157.0"/>
      <point x="95.2396" y="143.264"/>
    </contour>
  </outline>
</glyph>
<glyph name="endash" format="2">
  <advance width="681.9384"/>
  <unicode hex="2013"/>
  <outline>
    <contour>
      <point x="80.1292" y="330.69" type="line"/>
      <point x="80.1292" y="299.31" type="line"/>
      <point x="601.892" y="299.31" type="line"/>
      <point x="601.892" y="330.69" type="line"/>
    </contour>
  </outline>
</glyph>
<glyph name="estimated" format="2">
  <advance width="975.24"/>
  <unicode hex="212E"/>
  <outline>
    <contour>
      <point x="211.44" y="159.0" type="line"/>
      <point x="278.64" y="81.0"/>
      <point x="374.98" y="45.0"/>
      <point x="487.62" y="45.0" type="curve" smooth="yes"/>
      <point x="650.1600000000001" y="45.0"/>
      <point x="769.72" y="122.0"/>
      <point x="829.0" y="236.0" type="curve"/>
      <point x="898.6600000000001" y="236.0" type="line"/>
      <point x="839.38" y="98.0"/>
      <point x="690.6800000000001" y="-10.0"/>
      <point x="487.62" y="-10.0" type="curve" smooth="yes"/>
      <point x="245.04000000000002" y="-10.0"/>
      <point x="58.28" y="150.0"/>
      <point x="58.28" y="355.0" type="curve" smooth="yes"/>
      <point x="58.28" y="560.0"/>
      <point x="245.04000000000002" y="720.0"/>
      <point x="487.62" y="720.0" type="curve" smooth="yes"/>
      <point x="730.2" y="720.0"/>
      <point x="916.96" y="560.0"/>
      <point x="916.96" y="355.0" type="curve"/>
      <point x="161.54000000000002" y="355.0" type="line"/>
      <point x="161.54000000000002" y="410.0" type="line"/>
      <point x="763.8" y="410.0" type="line"/>
      <point x="763.8" y="554.0" type="line"/>
      <point x="696.6" y="629.0"/>
      <point x="600.26" y="665.0"/>
      <point x="487.62" y="665.0" type="curve" smooth="yes"/>
      <point x="374.98" y="665.0"/>
      <point x="278.64" y="629.0"/>
      <point x="211.44" y="554.0" type="curve"/>
    </contour>
  </outline>
</glyph>
<glyph name="emptyset" format="2">
  <advance width="810.24"/>
  <unicode hex="2205"/>
  <outline>
    <contour>
      <point x="81.3712" y="270.0" type="curve" smooth="yes"/>
      <point x="81.3712" y="111.51714285714287"/>
      <point x="227.9884" y="-7.138"/>
      <point x="405.12" y="-7.138" type="curve" smooth="yes"/>
      <point x="582.7944" y="-7.138"/>
      <point x="728.8688" y="111.51714285714287"/>
      <point x="728.8688" y="270.0" type="curve" smooth="yes"/>
      <point x="728.8688" y="428.48285714285714"/>
      <point x="582.7944" y="547.138"/>
      <point x="405.12" y="547.138" type="curve" smooth="yes"/>
      <point x="227.9884" y="547.138"/>
      <point x="81.3712" y="428.48285714285714"/>
    </contour>
    <contour>
      <point x="728.4852000000001" y="580.2760000000001" type="line"/>
      <point x="54.022400000000005" y="-14.724" type="line"/>
      <point x="81.75479999999999" y="-40.276" type="line"/>
      <point x="756.2176" y="554.7239999999999" type="line"/>
    </contour>
    <contour>
      <point x="405.12" y="29.782" type="curve" smooth="yes"/>
      <point x="248.5892" y="29.782"/>
      <point x="125.65840000000001" y="128.14603278688526"/>
      <point x="125.65840000000001" y="270.0" type="curve" smooth="yes"/>
      <point x="125.65840000000001" y="410.8419969387886"/>
      <point x="252.04919999999998" y="511.218"/>
      <point x="405.12" y="511.218" type="curve" smooth="yes"/>
      <point x="564.1936000000001" y="511.218"/>
      <point x="684.5816" y="412.80931632650436"/>
      <point x="684.5816" y="270.0" type="curve" smooth="yes"/>
      <point x="684.5816" y="130.11239344262293"/>
      <point x="559.108" y="29.782"/>
    </contour>
  </outline>
</glyph>
<glyph name="product" format="2">
  <advance width="806.2352000000001"/>
  <unicode hex="220F"/>
  <outline>
    <contour>
      <point x="52.36" y="710.0" type="line"/>
      <point x="52.36" y="679.218" type="line"/>
      <point x="65.2" y="679.218" type="line" smooth="yes"/>
      <point x="122.02000000000001" y="679.218"/>
      <point x="163.54000000000002" y="672.218"/>
      <point x="163.54000000000002" y="643.218" type="curve" smooth="yes"/>
      <point x="163.54000000000002" y="-156.21800000000002" type="line" smooth="yes"/>
      <point x="163.54000000000002" y="-185.21800000000002"/>
      <point x="122.02000000000001" y="-192.21800000000002"/>
      <point x="65.2" y="-192.21800000000002" type="curve" smooth="yes"/>
      <point x="52.36" y="-192.21800000000002" type="line"/>
      <point x="52.36" y="-223.0" type="line"/>
      <point x="316.23799999999994" y="-223.0" type="line"/>
      <point x="316.23799999999994" y="-192.21800000000002" type="line"/>
      <point x="305.858" y="-192.21800000000002" type="line" smooth="yes"/>
      <point x="261.1696" y="-192.21800000000002"/>
      <point x="204.01839999999999" y="-189.21800000000002"/>
      <point x="204.01839999999999" y="-182.21800000000002" type="curve" smooth="yes"/>
      <point x="204.01839999999999" y="669.218" type="line" smooth="yes"/>
      <point x="204.01839999999999" y="676.218"/>
      <point x="260.8384" y="679.218"/>
      <point x="305.36120000000005" y="679.218" type="curve" smooth="yes"/>
      <point x="500.95680000000004" y="679.218" type="line" smooth="yes"/>
      <point x="544.854" y="679.218"/>
      <point x="601.674" y="676.218"/>
      <point x="601.674" y="669.218" type="curve" smooth="yes"/>
      <point x="601.674" y="-182.21800000000002" type="line" smooth="yes"/>
      <point x="601.674" y="-189.21800000000002"/>
      <point x="544.44" y="-192.21800000000002"/>
      <point x="500.37719999999996" y="-192.21800000000002" type="curve" smooth="yes"/>
      <point x="489.99719999999996" y="-192.21800000000002" type="line"/>
      <point x="489.99719999999996" y="-223.0" type="line"/>
      <point x="753.8752" y="-223.0" type="line"/>
      <point x="753.8752" y="-192.21800000000002" type="line"/>
      <point x="741.0352" y="-192.21800000000002" type="line" smooth="yes"/>
      <point x="684.2152" y="-192.21800000000002"/>
      <point x="642.2352000000001" y="-185.21800000000002"/>
      <point x="642.2352000000001" y="-156.21800000000002" type="curve" smooth="yes"/>
      <point x="642.2352000000001" y="643.218" type="line" smooth="yes"/>
      <point x="642.2352000000001" y="672.218"/>
      <point x="684.2152" y="679.218"/>
      <point x="741.0352" y="679.218" type="curve" smooth="yes"/>
      <point x="753.8752" y="679.218" type="line"/>
      <point x="753.8752" y="710.0" type="line"/>
    </contour>
  </outline>
</glyph>
<glyph name="minus" format="2">
  <advance width="650.1600000000001"/>
  <unicode hex="2212"/>
  <outline>
    <contour>
      <point x="539.7444" y="356.82800000000003" type="line"/>
      <point x="110.41560000000001" y="356.82800000000003" type="line"/>
      <point x="110.41560000000001" y="325.17199999999997" type="line"/>
      <point x="539.7444" y="325.17199999999997" type="line"/>
    </contour>
  </outline>
</glyph>
<glyph name="integral" format="2">
  <advance width="615.5600000000001"/>
  <unicode hex="222B"/>
  <outline>
    <contour>
      <point x="302.51120000000003" y="-69.0" type="curve" smooth="yes"/>
      <point x="327.19120000000004" y="570.0" type="line" smooth="yes"/>
      <point x="330.6881126235296" y="672.126286603276"/>
      <point x="385.6608" y="705.896"/>
      <point x="468.1912" y="705.896" type="curve" smooth="yes"/>
      <point x="518.7536" y="705.896"/>
      <point x="554.89" y="687.172"/>
      <point x="570.9416" y="670.08" type="curve"/>
      <point x="578.7852" y="677.9879999999999"/>
      <point x="565.1044" y="705.896"/>
      <point x="535.2955999999999" y="704.896" type="curve"/>
      <point x="535.2955999999999" y="619.31" type="line"/>
      <point x="586.9295999999999" y="619.31" type="line"/>
      <point x="586.9295999999999" y="709.954" type="line"/>
      <point x="572.6692" y="720.0"/>
      <point x="527.8088" y="737.0"/>
      <point x="468.1912" y="737.0" type="curve" smooth="yes"/>
      <point x="361.0508" y="737.0"/>
      <point x="290.4276" y="684.862"/>
      <point x="286.0504" y="570.0" type="curve" smooth="yes"/>
      <point x="261.2876" y="-69.0" type="line" smooth="yes"/>
      <point x="257.7906891987328" y="-171.126317407268"/>
      <point x="203.4436" y="-204.896"/>
      <point x="120.2876" y="-204.896" type="curve" smooth="yes"/>
      <point x="69.7252" y="-204.896"/>
      <point x="34.2144" y="-186.172"/>
      <point x="18.08" y="-169.08" type="curve"/>
      <point x="9.6936" y="-176.988"/>
      <point x="23.3744" y="-204.896"/>
      <point x="53.726" y="-203.896" type="curve"/>
      <point x="53.726" y="-118.31" type="line"/>
      <point x="1.5492000000000001" y="-118.31" type="line"/>
      <point x="1.5492000000000001" y="-208.954" type="line"/>
      <point x="15.809600000000001" y="-219.0"/>
      <point x="60.75280000000001" y="-236.0"/>
      <point x="120.2876" y="-236.0" type="curve" smooth="yes"/>
      <point x="227.9708" y="-236.0"/>
      <point x="298.0512" y="-183.862"/>
    </contour>
  </outline>
</glyph>
<glyph name="f_f_i" format="2">
  <advance width="1096.3011999999999"/>
  <unicode hex="FB03"/>
  <outline>
    <contour>
      <point x="40.1888" y="508.0" type="line"/>
      <point x="40.1888" y="479.62" type="line"/>
      <point x="515.6424000000001" y="479.62" type="line"/>
      <point x="515.6424000000001" y="508.0" type="line"/>
    </contour>
    <contour>
      <point x="419.0124" y="508.0" type="line"/>
      <point x="419.0124" y="479.62" type="line"/>
      <point x="887.8788" y="479.62" type="line"/>
      <point x="887.8788" y="508.0" type="line"/>
    </contour>
    <contour>
      <point x="926.2984" y="655.2520000000001" type="curve" smooth="yes"/>
      <point x="951.6536000000001" y="655.2520000000001"/>
      <point x="970.4200000000001" y="669.666"/>
      <point x="970.4200000000001" y="696.218" type="curve" smooth="yes"/>
      <point x="970.4200000000001" y="722.7239999999999"/>
      <point x="951.6536000000001" y="737.138"/>
      <point x="926.2984" y="737.138" type="curve" smooth="yes"/>
      <point x="901.026" y="737.138"/>
      <point x="882.2596" y="722.7239999999999"/>
      <point x="882.2596" y="696.218" type="curve" smooth="yes"/>
      <point x="882.2596" y="669.666"/>
      <point x="901.026" y="655.2520000000001"/>
    </contour>
    <contour>
      <point x="820.5132000000001" y="0.0" type="line"/>
      <point x="1056.6284" y="0.0" type="line"/>
      <point x="1056.6284" y="27.828" type="line"/>
      <point x="1054.0028" y="27.828" type="line" smooth="yes"/>
      <point x="998.1827999999999" y="27.828"/>
      <point x="959.2884" y="34.827999999999996"/>
      <point x="959.2884" y="63.827999999999996" type="curve" smooth="yes"/>
      <point x="959.2884" y="508.0" type="line"/>
      <point x="820.596" y="508.0" type="line"/>
      <point x="820.596" y="479.62" type="line"/>
      <point x="832.3532" y="479.62" type="line" smooth="yes"/>
      <point x="891.5504000000001" y="479.62"/>
      <point x="918.3132" y="465.528"/>
      <point x="918.3132" y="436.528" type="curve"/>
      <point x="918.3132" y="37.827999999999996" type="line"/>
      <point x="918.3132" y="30.828"/>
      <point x="865.9531999999999" y="27.828"/>
      <point x="833.3532" y="27.828" type="curve" smooth="yes"/>
      <point x="820.5132000000001" y="27.828" type="line"/>
    </contour>
    <contour>
      <point x="202.184" y="37.827999999999996" type="curve"/>
      <point x="202.184" y="576.08" type="line" smooth="yes"/>
      <point x="202.184" y="675.218"/>
      <point x="245.9156" y="708.712"/>
      <point x="320.0292" y="708.712" type="curve" smooth="yes"/>
      <point x="357.42040000000003" y="708.712"/>
      <point x="387.5604" y="699.712"/>
      <point x="412.406" y="691.712" type="curve"/>
      <point x="412.406" y="727.046" type="line"/>
      <point x="391.0204" y="733.046"/>
      <point x="357.5032" y="737.046"/>
      <point x="322.6548" y="737.046" type="curve" smooth="yes"/>
      <point x="227.3084" y="737.046"/>
      <point x="161.2088" y="690.2760000000001"/>
      <point x="161.2088" y="576.08" type="curve" smooth="yes"/>
      <point x="161.2088" y="63.827999999999996" type="line"/>
      <point x="161.2088" y="34.827999999999996"/>
      <point x="122.6888" y="27.828"/>
      <point x="58.948800000000006" y="27.828" type="curve" smooth="yes"/>
      <point x="46.1088" y="27.828" type="line"/>
      <point x="46.1088" y="0.0" type="line"/>
      <point x="329.93640000000005" y="0.0" type="line"/>
      <point x="329.93640000000005" y="27.828" type="line"/>
      <point x="314.02" y="27.828" type="line" smooth="yes"/>
      <point x="250.36919999999998" y="27.828"/>
      <point x="202.184" y="30.828"/>
    </contour>
    <contour>
      <point x="539.4896" y="37.827999999999996" type="line"/>
      <point x="539.4896" y="30.828"/>
      <point x="491.30440000000004" y="27.828"/>
      <point x="428.31600000000003" y="27.828" type="curve" smooth="yes"/>
      <point x="424.3896" y="27.828" type="line"/>
      <point x="424.3896" y="0.0" type="line"/>
      <point x="707.104" y="0.0" type="line"/>
      <point x="707.104" y="27.828" type="line"/>
      <point x="691.7212000000001" y="27.828" type="line" smooth="yes"/>
      <point x="628.3188" y="27.828"/>
      <point x="580.4648" y="30.828"/>
      <point x="580.4648" y="37.827999999999996" type="curve"/>
      <point x="580.4648" y="591.034" type="line" smooth="yes"/>
      <point x="580.4648" y="690.172"/>
      <point x="623.6932" y="723.666"/>
      <point x="695.5124000000001" y="723.666" type="curve" smooth="yes"/>
      <point x="732.152" y="723.666"/>
      <point x="761.2092" y="714.7579999999999"/>
      <point x="784.6776" y="706.7579999999999" type="curve"/>
      <point x="784.6776" y="742.0" type="line"/>
      <point x="764.6692" y="748.0"/>
      <point x="732.152" y="752.0"/>
      <point x="698.1379999999999" y="752.0" type="curve" smooth="yes"/>
      <point x="605.086" y="752.0"/>
      <point x="539.4896" y="705.23"/>
      <point x="539.4896" y="591.034" type="curve"/>
    </contour>
  </outline>
</glyph>
<glyph name="acute.uc" format="2">
  <advance width="580.5"/>
  <anchor x="234.246" y="727.0" name="_top"/>
  <outline>
    <contour>
      <point x="309.05240000000003" y="868.322" type="curve" smooth="yes"/>
      <point x="206.8512" y="780.3679999999999" type="line"/>
      <point x="206.8512" y="766.0" type="line"/>
      <point x="221.578" y="766.0" type="line"/>
      <point x="347.24760000000003" y="836.712" type="line" smooth="yes"/>
      <point x="379.1024" y="855.712"/>
      <point x="395.4916" y="867.172"/>
      <point x="395.4916" y="883.586" type="curve" smooth="yes"/>
      <point x="395.4916" y="896.954"/>
      <point x="386.0224" y="906.46"/>
      <point x="369.88160000000005" y="906.46" type="curve" smooth="yes"/>
      <point x="348.24120000000005" y="906.46"/>
      <point x="336.2292" y="892.414"/>
    </contour>
  </outline>
</glyph>
<glyph name="blackdiamond" format="2">
  <advance width="722.28"/>
  <outline>
    <contour>
      <point x="664.0" y="313.0" type="line"/>
      <point x="361.14" y="574.0" type="line"/>
      <point x="58.28" y="313.0" type="line"/>
      <point x="361.14" y="52.0" type="line"/>
    </contour>
  </outline>
</glyph>
<glyph name="breve_hook" format="2">
  <advance width="592.4228"/>
  <anchor x="315.9356" y="525.0" name="_top"/>
  <outline>
    <contour>
      <point x="182.3" y="832.816" type="line"/>
      <point x="190.63400000000001" y="869.908"/>
      <point x="225.3628" y="906.678"/>
      <point x="303.6052" y="906.678" type="curve" smooth="yes"/>
      <point x="375.6424" y="906.678"/>
      <point x="411.1228" y="881.678"/>
      <point x="411.1228" y="840.54" type="curve" smooth="yes"/>
      <point x="411.1228" y="793.31"/>
      <point x="358.50800000000004" y="768.6320000000001"/>
      <point x="285.6428" y="765.54" type="curve"/>
      <point x="313.5344" y="791.402" type="line"/>
      <point x="313.5344" y="733.816" type="line"/>
      <point x="272.962" y="733.816" type="line"/>
      <point x="272.962" y="792.7239999999999" type="line"/>
      <point x="335.07" y="795.7239999999999"/>
      <point x="367.6636" y="807.77"/>
      <point x="367.6636" y="839.494" type="curve" smooth="yes"/>
      <point x="367.6636" y="861.402"/>
      <point x="347.15840000000003" y="878.126"/>
      <point x="303.688" y="878.126" type="curve" smooth="yes"/>
      <point x="250.5524" y="878.126"/>
      <point x="233.83839999999998" y="856.54"/>
      <point x="226.5872" y="832.816" type="curve"/>
    </contour>
    <contour>
      <point x="294.2712" y="593.31" type="curve" smooth="yes"/>
      <point x="214.5992" y="593.31"/>
      <point x="161.31560000000002" y="642.31"/>
      <point x="155.3956" y="736.0" type="curve"/>
      <point x="184.4352" y="736.0" type="line"/>
      <point x="194.98080000000002" y="662.2760000000001"/>
      <point x="232.5376" y="637.506"/>
      <point x="295.0228" y="637.506" type="curve" smooth="yes"/>
      <point x="354.8824" y="637.506"/>
      <point x="395.23040000000003" y="662.2760000000001"/>
      <point x="405.776" y="736.0" type="curve"/>
      <point x="432.6868" y="736.0" type="line"/>
      <point x="426.7668" y="642.31"/>
      <point x="373.4832" y="593.31"/>
    </contour>
  </outline>
</glyph>
<glyph name="breve_hook.uc" format="2">
  <advance width="579.4236000000001"/>
  <anchor x="294.2712" y="724.0" name="_top"/>
  <outline>
    <contour>
      <point x="179.2604" y="984.0" type="line"/>
      <point x="188.1372" y="1021.092"/>
      <point x="225.0316" y="1057.862"/>
      <point x="301.1084" y="1057.862" type="curve" smooth="yes"/>
      <point x="372.6028" y="1057.862"/>
      <point x="408.0832" y="1030.908"/>
      <point x="408.0832" y="990.77" type="curve" smooth="yes"/>
      <point x="408.0832" y="942.54"/>
      <point x="351.67719999999997" y="919.7239999999999"/>
      <point x="282.6032" y="917.6320000000001" type="curve"/>
      <point x="310.4948" y="943.494" type="line"/>
      <point x="310.4948" y="887.77" type="line"/>
      <point x="269.92240000000004" y="887.77" type="line"/>
      <point x="269.92240000000004" y="944.816" type="line"/>
      <point x="327.1564" y="946.816"/>
      <point x="364.5412" y="957.0"/>
      <point x="364.5412" y="990.678" type="curve" smooth="yes"/>
      <point x="364.5412" y="1011.586"/>
      <point x="341.95320000000004" y="1029.31"/>
      <point x="301.1912" y="1029.31" type="curve" smooth="yes"/>
      <point x="249.05560000000003" y="1029.31"/>
      <point x="230.79879999999997" y="1006.77"/>
      <point x="223.5476" y="984.0" type="curve"/>
    </contour>
    <contour>
      <point x="294.2712" y="759.0" type="curve" smooth="yes"/>
      <point x="202.9708" y="759.0"/>
      <point x="148.7304" y="805.678"/>
      <point x="143.68439999999998" y="885.816" type="curve"/>
      <point x="174.5584" y="885.816" type="line"/>
      <point x="185.0212" y="825.552"/>
      <point x="220.4952" y="800.196"/>
      <point x="293.94" y="800.196" type="curve" smooth="yes"/>
      <point x="366.9248" y="800.196"/>
      <point x="404.73" y="825.552"/>
      <point x="415.7356" y="885.816" type="curve"/>
      <point x="444.48080000000004" y="885.816" type="line"/>
      <point x="439.4348" y="805.678"/>
      <point x="385.1116" y="759.0"/>
    </contour>
  </outline>
</glyph>
<glyph name="brokenbar.uc" format="2">
  <advance width="325.08000000000004"/>
  <outline>
    <contour>
      <point x="179.06439999999998" y="453.62" type="line"/>
      <point x="179.06439999999998" y="769.08" type="line"/>
      <point x="146.0156" y="769.08" type="line"/>
      <point x="146.0156" y="453.62" type="line"/>
    </contour>
    <contour>
      <point x="146.0156" y="313.62" type="line"/>
      <point x="146.0156" y="-1.8400000000000003" type="line"/>
      <point x="179.06439999999998" y="-1.8400000000000003" type="line"/>
      <point x="179.06439999999998" y="313.62" type="line"/>
    </contour>
  </outline>
</glyph>
<glyph name="caron.alt" format="2">
  <advance width="580.5"/>
  <anchor x="98.4688" y="574.0" name="_right"/>
  <outline>
    <contour>
      <point x="140.3852" y="526.0" type="line"/>
      <point x="116.1" y="526.0" type="line"/>
      <point x="116.1" y="536.0" type="line"/>
      <point x="136.86" y="710.0" type="line"/>
      <point x="190.586" y="710.0" type="line"/>
    </contour>
  </outline>
</glyph>
<glyph name="cedi.proportional" format="2">
  <advance width="760.8256"/>
  <outline>
    <contour>
      <point x="412.73720000000003" y="700.0" type="curve" smooth="yes"/>
      <point x="206.9864" y="700.0"/>
      <point x="53.449200000000005" y="568.448"/>
      <point x="53.449200000000005" y="355.0" type="curve" smooth="yes"/>
      <point x="53.449200000000005" y="150.0"/>
      <point x="202.61560000000003" y="10.0"/>
      <point x="410.7676" y="10.0" type="curve" smooth="yes"/>
      <point x="573.8936" y="10.0"/>
      <point x="672.6171999999999" y="96.276"/>
      <point x="711.1372" y="219.46" type="curve"/>
      <point x="679.6376" y="236.104" type="line"/>
      <point x="648.6632" y="128.058"/>
      <point x="563.0408" y="41.472"/>
      <point x="410.10519999999997" y="41.472" type="curve" smooth="yes"/>
      <point x="220.5668" y="41.472"/>
      <point x="97.682" y="165.874"/>
      <point x="97.682" y="355.0" type="curve" smooth="yes"/>
      <point x="97.682" y="555.712"/>
      <point x="230.43720000000002" y="668.7579999999999"/>
      <point x="412.73720000000003" y="668.7579999999999" type="curve" smooth="yes"/>
      <point x="534.7940000000001" y="668.7579999999999"/>
      <point x="613.7448" y="629.39"/>
      <point x="657.8012" y="577.574" type="curve"/>
      <point x="674.8464" y="565.598"/>
      <point x="677.7444" y="602.3679999999999"/>
      <point x="630.9796" y="620.77" type="curve"/>
      <point x="630.9796" y="512.896" type="line"/>
      <point x="684.0432" y="512.896" type="line"/>
      <point x="684.0432" y="611.2760000000001" type="line"/>
      <point x="640.8148" y="654.7239999999999"/>
      <point x="545.3092" y="700.0"/>
    </contour>
    <contour>
      <point x="391.3692" y="790.0" type="line"/>
      <point x="391.3692" y="689.034" type="line"/>
      <point x="391.3692" y="681.85" type="line"/>
      <point x="391.3692" y="31.413999999999998" type="line"/>
      <point x="391.3692" y="26.322" type="line"/>
      <point x="391.3692" y="-120.0" type="line"/>
      <point x="430.69960000000003" y="-120.0" type="line"/>
      <point x="430.69960000000003" y="26.413999999999998" type="line"/>
      <point x="430.69960000000003" y="29.736" type="line"/>
      <point x="430.69960000000003" y="683.126" type="line"/>
      <point x="430.69960000000003" y="687.218" type="line"/>
      <point x="430.69960000000003" y="790.0" type="line"/>
    </contour>
  </outline>
</glyph>
<glyph name="f_f_i.alt" format="2">
  <advance width="1100.0924"/>
  <outline>
    <contour>
      <point x="40.1888" y="508.0" type="line"/>
      <point x="40.1888" y="479.62" type="line"/>
      <point x="515.8908" y="479.62" type="line"/>
      <point x="515.8908" y="508.0" type="line"/>
    </contour>
    <contour>
      <point x="419.0124" y="508.0" type="line"/>
      <point x="419.0124" y="479.62" type="line"/>
      <point x="884.9808" y="479.62" type="line"/>
      <point x="884.9808" y="508.0" type="line"/>
    </contour>
    <contour>
      <point x="820.5132000000001" y="0.0" type="line"/>
      <point x="1056.6284" y="0.0" type="line"/>
      <point x="1056.6284" y="27.828" type="line"/>
      <point x="1054.0028" y="27.828" type="line" smooth="yes"/>
      <point x="998.1827999999999" y="27.828"/>
      <point x="959.2884" y="34.827999999999996"/>
      <point x="959.2884" y="63.827999999999996" type="curve" smooth="yes"/>
      <point x="959.2884" y="508.0" type="line"/>
      <point x="820.596" y="508.0" type="line"/>
      <point x="820.596" y="479.62" type="line"/>
      <point x="832.3532" y="479.62" type="line" smooth="yes"/>
      <point x="891.5504000000001" y="479.62"/>
      <point x="918.3132" y="465.528"/>
      <point x="918.3132" y="436.528" type="curve"/>
      <point x="918.3132" y="37.827999999999996" type="line"/>
      <point x="918.3132" y="30.828"/>
      <point x="865.9531999999999" y="27.828"/>
      <point x="833.3532" y="27.828" type="curve" smooth="yes"/>
      <point x="820.5132000000001" y="27.828" type="line"/>
    </contour>
    <contour>
      <point x="580.4648" y="37.827999999999996" type="curve" smooth="yes"/>
      <point x="580.4648" y="578.586" type="line" smooth="yes"/>
      <point x="580.4648" y="689.482"/>
      <point x="662.8996" y="720.804"/>
      <point x="765.752" y="720.804" type="curve" smooth="yes"/>
      <point x="835.9612" y="720.804"/>
      <point x="890.5696" y="706.482"/>
      <point x="928.0436" y="673.7579999999999" type="curve"/>
      <point x="934.6784" y="701.298"/>
      <point x="920.9516" y="704.3679999999999"/>
      <point x="898.9735999999999" y="725.31" type="curve"/>
      <point x="898.9735999999999" y="637.85" type="line"/>
      <point x="950.8192" y="637.85" type="line"/>
      <point x="950.8192" y="707.2760000000001" type="line"/>
      <point x="916.8116" y="730.6320000000001"/>
      <point x="857.7736" y="752.0"/>
      <point x="765.752" y="752.0" type="curve" smooth="yes"/>
      <point x="639.2896000000001" y="752.0"/>
      <point x="539.4896" y="706.08"/>
      <point x="539.4896" y="578.586" type="curve" smooth="yes"/>
      <point x="539.4896" y="37.827999999999996" type="line"/>
      <point x="539.4896" y="30.828"/>
      <point x="491.30440000000004" y="27.828"/>
      <point x="428.31600000000003" y="27.828" type="curve" smooth="yes"/>
      <point x="424.3896" y="27.828" type="line"/>
      <point x="424.3896" y="0.0" type="line"/>
      <point x="707.104" y="0.0" type="line"/>
      <point x="707.104" y="27.828" type="line"/>
      <point x="691.7212000000001" y="27.828" type="line" smooth="yes"/>
      <point x="628.3188" y="27.828"/>
      <point x="580.4648" y="30.828"/>
    </contour>
    <contour>
      <point x="202.184" y="37.827999999999996" type="curve" smooth="yes"/>
      <point x="202.184" y="558.586" type="line" smooth="yes"/>
      <point x="202.184" y="669.482"/>
      <point x="290.824" y="700.804"/>
      <point x="392.014" y="700.804" type="curve" smooth="yes"/>
      <point x="465.4348" y="700.804"/>
      <point x="529.0856" y="682.62"/>
      <point x="569.1852" y="635.62" type="curve"/>
      <point x="575.1944" y="677.436"/>
      <point x="561.5504000000001" y="680.506"/>
      <point x="539.4896" y="690.9879999999999" type="curve"/>
      <point x="539.4896" y="567.85" type="line"/>
      <point x="578.336" y="617.85" type="line"/>
      <point x="578.336" y="680.586" type="line"/>
      <point x="546.6992" y="706.586"/>
      <point x="484.456" y="732.0"/>
      <point x="392.014" y="732.0" type="curve" smooth="yes"/>
      <point x="261.1744" y="732.0"/>
      <point x="161.2088" y="686.08"/>
      <point x="161.2088" y="558.586" type="curve" smooth="yes"/>
      <point x="161.2088" y="63.827999999999996" type="line"/>
      <point x="161.2088" y="34.827999999999996"/>
      <point x="122.6888" y="27.828"/>
      <point x="58.948800000000006" y="27.828" type="curve" smooth="yes"/>
      <point x="46.1088" y="27.828" type="line"/>
      <point x="46.1088" y="0.0" type="line"/>
      <point x="329.93640000000005" y="0.0" type="line"/>
      <point x="329.93640000000005" y="27.828" type="line"/>
      <point x="314.02" y="27.828" type="line" smooth="yes"/>
      <point x="250.36919999999998" y="27.828"/>
      <point x="202.184" y="30.828"/>
    </contour>
  </outline>
</glyph>
<glyph name="f_f_j.alt" format="2">
  <advance width="1072.3424"/>
  <outline>
    <contour>
      <point x="202.184" y="37.827999999999996" type="curve" smooth="yes"/>
      <point x="202.184" y="558.586" type="line" smooth="yes"/>
      <point x="202.184" y="669.482"/>
      <point x="290.824" y="700.804"/>
      <point x="392.014" y="700.804" type="curve" smooth="yes"/>
      <point x="465.4348" y="700.804"/>
      <point x="529.0856" y="682.62"/>
      <point x="569.1852" y="635.62" type="curve"/>
      <point x="575.1944" y="677.436"/>
      <point x="561.5504000000001" y="680.506"/>
      <point x="539.4896" y="690.9879999999999" type="curve"/>
      <point x="539.4896" y="567.85" type="line"/>
      <point x="578.336" y="617.85" type="line"/>
      <point x="578.336" y="680.586" type="line"/>
      <point x="546.6992" y="706.586"/>
      <point x="484.456" y="732.0"/>
      <point x="392.014" y="732.0" type="curve" smooth="yes"/>
      <point x="261.1744" y="732.0"/>
      <point x="161.2088" y="686.08"/>
      <point x="161.2088" y="558.586" type="curve" smooth="yes"/>
      <point x="161.2088" y="63.827999999999996" type="line"/>
      <point x="161.2088" y="34.827999999999996"/>
      <point x="122.6888" y="27.828"/>
      <point x="58.948800000000006" y="27.828" type="curve" smooth="yes"/>
      <point x="46.1088" y="27.828" type="line"/>
      <point x="46.1088" y="0.0" type="line"/>
      <point x="329.93640000000005" y="0.0" type="line"/>
      <point x="329.93640000000005" y="27.828" type="line"/>
      <point x="314.02" y="27.828" type="line" smooth="yes"/>
      <point x="250.36919999999998" y="27.828"/>
      <point x="202.184" y="30.828"/>
    </contour>
    <contour>
      <point x="539.4896" y="37.827999999999996" type="line" smooth="yes"/>
      <point x="539.4896" y="30.828"/>
      <point x="485.72200000000004" y="27.828"/>
      <point x="443.7292" y="27.828" type="curve" smooth="yes"/>
      <point x="424.3896" y="27.828" type="line"/>
      <point x="424.3896" y="0.0" type="line"/>
      <point x="707.104" y="0.0" type="line"/>
      <point x="707.104" y="27.828" type="line"/>
      <point x="691.7212000000001" y="27.828" type="line" smooth="yes"/>
      <point x="628.3188" y="27.828"/>
      <point x="580.4648" y="30.828"/>
      <point x="580.4648" y="37.827999999999996" type="curve"/>
      <point x="580.4648" y="578.586" type="line" smooth="yes"/>
      <point x="580.4648" y="689.482"/>
      <point x="662.8996" y="720.804"/>
      <point x="765.752" y="720.804" type="curve" smooth="yes"/>
      <point x="835.9612" y="720.804"/>
      <point x="890.5696" y="706.482"/>
      <point x="928.0436" y="673.7579999999999" type="curve"/>
      <point x="934.6784" y="701.298"/>
      <point x="920.9516" y="704.3679999999999"/>
      <point x="898.9735999999999" y="725.31" type="curve"/>
      <point x="898.9735999999999" y="637.85" type="line"/>
      <point x="950.8192" y="637.85" type="line"/>
      <point x="950.8192" y="707.2760000000001" type="line"/>
      <point x="916.8116" y="730.6320000000001"/>
      <point x="857.7736" y="752.0"/>
      <point x="765.752" y="752.0" type="curve" smooth="yes"/>
      <point x="639.2896000000001" y="752.0"/>
      <point x="539.4896" y="706.08"/>
      <point x="539.4896" y="578.586" type="curve" smooth="yes"/>
    </contour>
    <contour>
      <point x="918.3132" y="-73.62" type="line" smooth="yes"/>
      <point x="918.3132" y="-170.712"/>
      <point x="871.8732" y="-202.62"/>
      <point x="796.962" y="-202.62" type="curve" smooth="yes"/>
      <point x="753.0712000000001" y="-202.62"/>
      <point x="721.6" y="-193.804"/>
      <point x="694.9200000000001" y="-184.942" type="curve"/>
      <point x="694.9200000000001" y="-220.276" type="line"/>
      <point x="716.7628" y="-229.138"/>
      <point x="747.866" y="-236.0"/>
      <point x="796.6308" y="-236.0" type="curve" smooth="yes"/>
      <point x="875.4812" y="-236.0"/>
      <point x="959.2884" y="-203.54"/>
      <point x="959.2884" y="-73.62" type="curve" smooth="yes"/>
      <point x="959.2884" y="508.0" type="line"/>
      <point x="820.596" y="508.0" type="line"/>
      <point x="820.596" y="479.62" type="line"/>
      <point x="832.3532" y="479.62" type="line" smooth="yes"/>
      <point x="891.5504000000001" y="479.62"/>
      <point x="918.3132" y="465.528"/>
      <point x="918.3132" y="436.528" type="curve" smooth="yes"/>
    </contour>
    <contour>
      <point x="40.1888" y="508.0" type="line"/>
      <point x="40.1888" y="479.62" type="line"/>
      <point x="517.8779999999999" y="479.62" type="line"/>
      <point x="517.8779999999999" y="508.0" type="line"/>
    </contour>
    <contour>
      <point x="419.0124" y="508.0" type="line"/>
      <point x="419.0124" y="479.62" type="line"/>
      <point x="887.8788" y="479.62" type="line"/>
      <point x="887.8788" y="508.0" type="line"/>
    </contour>
  </outline>
</glyph>
<glyph name="f_f_j" format="2">
  <advance width="1072.3424"/>
  <outline>
    <contour>
      <point x="40.1888" y="508.0" type="line"/>
      <point x="40.1888" y="479.62" type="line"/>
      <point x="517.8779999999999" y="479.62" type="line"/>
      <point x="517.8779999999999" y="508.0" type="line"/>
    </contour>
    <contour>
      <point x="919.7988000000001" y="655.2520000000001" type="curve" smooth="yes"/>
      <point x="945.154" y="655.2520000000001"/>
      <point x="963.9204" y="669.666"/>
      <point x="963.9204" y="696.218" type="curve" smooth="yes"/>
      <point x="963.9204" y="722.7239999999999"/>
      <point x="945.154" y="737.138"/>
      <point x="919.7988000000001" y="737.138" type="curve" smooth="yes"/>
      <point x="894.5264000000001" y="737.138"/>
      <point x="875.76" y="722.7239999999999"/>
      <point x="875.76" y="696.218" type="curve" smooth="yes"/>
      <point x="875.76" y="669.666"/>
      <point x="894.5264000000001" y="655.2520000000001"/>
    </contour>
    <contour>
      <point x="419.0124" y="508.0" type="line"/>
      <point x="419.0124" y="479.62" type="line"/>
      <point x="887.8788" y="479.62" type="line"/>
      <point x="887.8788" y="508.0" type="line"/>
    </contour>
    <contour>
      <point x="918.3132" y="-73.62" type="line" smooth="yes"/>
      <point x="918.3132" y="-170.712"/>
      <point x="871.8732" y="-202.62"/>
      <point x="796.962" y="-202.62" type="curve" smooth="yes"/>
      <point x="753.0712000000001" y="-202.62"/>
      <point x="721.6" y="-193.804"/>
      <point x="694.9200000000001" y="-184.942" type="curve"/>
      <point x="694.9200000000001" y="-220.276" type="line"/>
      <point x="716.7628" y="-229.138"/>
      <point x="747.866" y="-236.0"/>
      <point x="796.6308" y="-236.0" type="curve" smooth="yes"/>
      <point x="875.4812" y="-236.0"/>
      <point x="959.2884" y="-203.54"/>
      <point x="959.2884" y="-73.62" type="curve" smooth="yes"/>
      <point x="959.2884" y="508.0" type="line"/>
      <point x="820.596" y="508.0" type="line"/>
      <point x="820.596" y="479.62" type="line"/>
      <point x="832.3532" y="479.62" type="line" smooth="yes"/>
      <point x="891.5504000000001" y="479.62"/>
      <point x="918.3132" y="465.528"/>
      <point x="918.3132" y="436.528" type="curve" smooth="yes"/>
    </contour>
    <contour>
      <point x="202.184" y="37.827999999999996" type="curve"/>
      <point x="202.184" y="576.08" type="line" smooth="yes"/>
      <point x="202.184" y="675.218"/>
      <point x="245.9156" y="708.712"/>
      <point x="320.0292" y="708.712" type="curve" smooth="yes"/>
      <point x="357.42040000000003" y="708.712"/>
      <point x="387.5604" y="699.712"/>
      <point x="412.406" y="691.712" type="curve"/>
      <point x="412.406" y="727.046" type="line"/>
      <point x="391.0204" y="733.046"/>
      <point x="357.5032" y="737.046"/>
      <point x="322.6548" y="737.046" type="curve" smooth="yes"/>
      <point x="227.3084" y="737.046"/>
      <point x="161.2088" y="690.2760000000001"/>
      <point x="161.2088" y="576.08" type="curve" smooth="yes"/>
      <point x="161.2088" y="63.827999999999996" type="line" smooth="yes"/>
      <point x="161.2088" y="34.827999999999996"/>
      <point x="122.6888" y="27.828"/>
      <point x="58.948800000000006" y="27.828" type="curve" smooth="yes"/>
      <point x="46.1088" y="27.828" type="line"/>
      <point x="46.1088" y="0.0" type="line"/>
      <point x="329.93640000000005" y="0.0" type="line"/>
      <point x="329.93640000000005" y="27.828" type="line"/>
      <point x="314.02" y="27.828" type="line" smooth="yes"/>
      <point x="250.36919999999998" y="27.828"/>
      <point x="202.184" y="30.828"/>
    </contour>
    <contour>
      <point x="539.4896" y="37.827999999999996" type="line"/>
      <point x="539.4896" y="30.828"/>
      <point x="485.72200000000004" y="27.828"/>
      <point x="443.7292" y="27.828" type="curve" smooth="yes"/>
      <point x="424.3896" y="27.828" type="line"/>
      <point x="424.3896" y="0.0" type="line"/>
      <point x="707.104" y="0.0" type="line"/>
      <point x="707.104" y="27.828" type="line"/>
      <point x="691.7212000000001" y="27.828" type="line" smooth="yes"/>
      <point x="628.3188" y="27.828"/>
      <point x="580.4648" y="30.828"/>
      <point x="580.4648" y="37.827999999999996" type="curve" smooth="yes"/>
      <point x="580.4648" y="591.034" type="line" smooth="yes"/>
      <point x="580.4648" y="690.172"/>
      <point x="623.6932" y="723.666"/>
      <point x="695.5124000000001" y="723.666" type="curve" smooth="yes"/>
      <point x="732.152" y="723.666"/>
      <point x="761.2092" y="714.7579999999999"/>
      <point x="784.6776" y="706.7579999999999" type="curve"/>
      <point x="784.6776" y="742.0" type="line"/>
      <point x="764.6692" y="748.0"/>
      <point x="732.152" y="752.0"/>
      <point x="698.1379999999999" y="752.0" type="curve" smooth="yes"/>
      <point x="605.086" y="752.0"/>
      <point x="539.4896" y="705.23"/>
      <point x="539.4896" y="591.034" type="curve"/>
    </contour>
  </outline>
</glyph>
<glyph name="five.den" format="2">
  <advance width="375.98"/>
  <outline>
    <contour>
      <point x="188.7996" y="-6.0" type="curve" smooth="yes"/>
      <point x="106.548" y="-6.0"/>
      <point x="57.062" y="32.092"/>
      <point x="31.382" y="78.368" type="curve"/>
      <point x="63.071200000000005" y="97.644" type="line"/>
      <point x="81.45400000000001" y="61.69"/>
      <point x="122.6824" y="24.46"/>
      <point x="189.462" y="24.46" type="curve" smooth="yes"/>
      <point x="246.1992" y="24.46"/>
      <point x="290.504" y="55.322"/>
      <point x="290.504" y="115.77" type="curve" smooth="yes"/>
      <point x="290.504" y="165.54"/>
      <point x="256.57280000000003" y="194.402"/>
      <point x="199.7592" y="194.402" type="curve" smooth="yes"/>
      <point x="152.40840000000003" y="194.402"/>
      <point x="124.1028" y="174.632"/>
      <point x="100.55160000000001" y="145.816" type="curve"/>
      <point x="69.57079999999999" y="145.816" type="line"/>
      <point x="69.57079999999999" y="341.0" type="line"/>
      <point x="305.492" y="341.0" type="line"/>
      <point x="298.8204" y="299.264" type="line"/>
      <point x="91.7144" y="299.264" type="line"/>
      <point x="106.47160000000001" y="330.0" type="line"/>
      <point x="106.47160000000001" y="172.816" type="line"/>
      <point x="104.5544" y="165.816"/>
      <point x="91.7144" y="161.816"/>
      <point x="90.17160000000001" y="172.816" type="curve"/>
      <point x="113.3916" y="203.816"/>
      <point x="152.99439999999998" y="224.816"/>
      <point x="205.18880000000001" y="224.816" type="curve" smooth="yes"/>
      <point x="290.7348" y="224.816"/>
      <point x="339.552" y="175.816"/>
      <point x="339.552" y="115.77" type="curve" smooth="yes"/>
      <point x="339.552" y="43.908"/>
      <point x="276.64639999999997" y="-6.0"/>
    </contour>
  </outline>
</glyph>
<glyph name="kip.proportional" format="2">
  <advance width="749.5348"/>
  <outline>
    <contour>
      <point x="52.36" y="386.50600000000003" type="line"/>
      <point x="52.36" y="355.49399999999997" type="line"/>
      <point x="633.422" y="355.49399999999997" type="line"/>
      <point x="633.422" y="386.50600000000003" type="line"/>
    </contour>
    <contour>
      <point x="52.36" y="0.0" type="line"/>
      <point x="316.0724" y="0.0" type="line"/>
      <point x="316.0724" y="30.782" type="line"/>
      <point x="305.6924" y="30.782" type="line" smooth="yes"/>
      <point x="261.1696" y="30.782"/>
      <point x="204.3496" y="33.782000000000004"/>
      <point x="204.3496" y="40.782000000000004" type="curve" smooth="yes"/>
      <point x="204.3496" y="669.218" type="line" smooth="yes"/>
      <point x="204.3496" y="676.218"/>
      <point x="261.1696" y="679.218"/>
      <point x="305.6924" y="679.218" type="curve" smooth="yes"/>
      <point x="316.0724" y="679.218" type="line"/>
      <point x="316.0724" y="710.0" type="line"/>
      <point x="52.36" y="710.0" type="line"/>
      <point x="52.36" y="679.218" type="line"/>
      <point x="65.2" y="679.218" type="line" smooth="yes"/>
      <point x="122.02000000000001" y="679.218"/>
      <point x="163.54000000000002" y="672.218"/>
      <point x="163.54000000000002" y="643.218" type="curve" smooth="yes"/>
      <point x="163.54000000000002" y="66.782" type="line" smooth="yes"/>
      <point x="163.54000000000002" y="37.782000000000004"/>
      <point x="122.02000000000001" y="30.782"/>
      <point x="65.2" y="30.782" type="curve" smooth="yes"/>
      <point x="52.36" y="30.782" type="line"/>
    </contour>
    <contour>
      <point x="730.496" y="30.782" type="line"/>
      <point x="717.9044" y="30.782" type="line" smooth="yes"/>
      <point x="665.8388" y="30.782"/>
      <point x="643.5360000000001" y="33.782000000000004"/>
      <point x="614.1476" y="63.782000000000004" type="curve" smooth="yes"/>
      <point x="310.04560000000004" y="383.058" type="line"/>
      <point x="301.1688" y="358.092" type="line"/>
      <point x="605.0096" y="650.218" type="line" smooth="yes"/>
      <point x="629.478" y="673.218"/>
      <point x="655.158" y="679.218"/>
      <point x="697.3864000000001" y="679.218" type="curve" smooth="yes"/>
      <point x="715.6864" y="679.218" type="line"/>
      <point x="715.6864" y="710.0" type="line"/>
      <point x="474.0936" y="710.0" type="line"/>
      <point x="474.0936" y="679.218" type="line"/>
      <point x="484.4736" y="679.218" type="line" smooth="yes"/>
      <point x="528.0332000000001" y="679.218"/>
      <point x="575.97" y="676.218"/>
      <point x="578.5128" y="669.218" type="curve"/>
      <point x="265.752" y="367.046" type="line"/>
      <point x="278.62879999999996" y="361.54" type="line"/>
      <point x="587.6684" y="40.782000000000004" type="line"/>
      <point x="587.6684" y="33.782000000000004"/>
      <point x="532.646" y="30.782"/>
      <point x="489.25200000000007" y="30.782" type="curve" smooth="yes"/>
      <point x="478.872" y="30.782" type="line"/>
      <point x="478.872" y="0.0" type="line"/>
      <point x="730.496" y="0.0" type="line"/>
    </contour>
  </outline>
</glyph>
<glyph name="seven.den" format="2">
  <advance width="376.5228"/>
  <outline>
    <contour>
      <point x="164.6688" y="311.666" type="line" smooth="yes"/>
      <point x="113.30879999999999" y="311.666"/>
      <point x="92.5488" y="307.666"/>
      <point x="90.0888" y="287.666" type="curve" smooth="yes"/>
      <point x="85.6288" y="240.666" type="line"/>
      <point x="56.4824" y="240.666" type="line"/>
      <point x="56.4824" y="341.0" type="line"/>
      <point x="340.4692" y="341.0" type="line"/>
      <point x="340.4692" y="309.896" type="line"/>
      <point x="252.764" y="221.126"/>
      <point x="203.864" y="144.448"/>
      <point x="197.02679999999998" y="0.0" type="curve"/>
      <point x="146.89600000000002" y="0.0" type="line"/>
      <point x="159.8188" y="142.356"/>
      <point x="250.9664" y="272.49399999999997"/>
      <point x="323.69640000000004" y="324.62" type="curve"/>
      <point x="324.3284" y="311.666" type="line"/>
    </contour>
  </outline>
</glyph>
<glyph name="three.old" format="2">
  <advance width="650.1600000000001"/>
  <outline>
    <contour>
      <point x="324.7424" y="-118.62" type="curve" smooth="yes"/>
      <point x="457.08360000000005" y="-118.62"/>
      <point x="544.4512" y="-58.08"/>
      <point x="544.4512" y="49.138" type="curve" smooth="yes"/>
      <point x="544.4512" y="145.678"/>
      <point x="468.0496" y="208.356"/>
      <point x="310.43600000000004" y="208.356" type="curve" smooth="yes"/>
      <point x="226.936" y="208.356" type="line"/>
      <point x="226.936" y="239.598" type="line"/>
      <point x="296.596" y="239.598" type="line" smooth="yes"/>
      <point x="416.4044" y="239.598"/>
      <point x="506.56320000000005" y="287.368"/>
      <point x="506.56320000000005" y="382.0" type="curve" smooth="yes"/>
      <point x="506.56320000000005" y="485.034"/>
      <point x="427.364" y="526.666"/>
      <point x="325.8252" y="526.666" type="curve" smooth="yes"/>
      <point x="225.0316" y="526.666"/>
      <point x="163.0432" y="490.62"/>
      <point x="131.3172" y="458.838" type="curve"/>
      <point x="135.86" y="483.48199999999997"/>
      <point x="154.7856" y="507.39"/>
      <point x="154.2188" y="509.48199999999997" type="curve"/>
      <point x="154.2188" y="406.344" type="line"/>
      <point x="102.87" y="406.344" type="line"/>
      <point x="102.87" y="486.85" type="line"/>
      <point x="138.0128" y="515.6320000000001"/>
      <point x="206.934" y="558.0"/>
      <point x="328.36800000000005" y="558.0" type="curve" smooth="yes"/>
      <point x="457.81759999999997" y="558.0"/>
      <point x="551.0812000000001" y="493.0"/>
      <point x="551.0812000000001" y="394.0" type="curve" smooth="yes"/>
      <point x="551.0812000000001" y="274.82800000000003"/>
      <point x="423.6444" y="219.09199999999998"/>
      <point x="299.3936" y="219.09199999999998" type="curve"/>
      <point x="320.15360000000004" y="229.09199999999998" type="line"/>
      <point x="516.6008" y="229.09199999999998"/>
      <point x="588.6379999999999" y="150.046"/>
      <point x="588.6379999999999" y="49.138" type="curve" smooth="yes"/>
      <point x="588.6379999999999" y="-67.95400000000001"/>
      <point x="477.7432" y="-150.0"/>
      <point x="324.7424" y="-150.0" type="curve" smooth="yes"/>
      <point x="176.3736" y="-150.0"/>
      <point x="80.7024" y="-79.46"/>
      <point x="36.888" y="14.356" type="curve"/>
      <point x="61.67" y="38.184" type="line"/>
      <point x="97.81280000000001" y="-39.217999999999996"/>
      <point x="180.886" y="-118.62"/>
    </contour>
  </outline>
</glyph>
<glyph name="two.lin" format="2">
  <advance width="650.1600000000001"/>
  <outline>
    <contour>
      <point x="327.48760000000004" y="720.0" type="curve" smooth="yes"/>
      <point x="459.2776" y="720.0"/>
      <point x="571.4512" y="653.77"/>
      <point x="571.4512" y="526.586" type="curve" smooth="yes"/>
      <point x="571.4512" y="355.448"/>
      <point x="325.6532" y="179.678"/>
      <point x="96.6712" y="24.012" type="curve"/>
      <point x="93.29400000000001" y="26.058"/>
      <point x="91.0824" y="28.794"/>
      <point x="93.4596" y="31.932000000000002" type="curve"/>
      <point x="398.4724" y="31.932000000000002" type="line" smooth="yes"/>
      <point x="498.7692" y="31.932000000000002"/>
      <point x="541.246" y="38.932"/>
      <point x="544.5404000000001" y="74.84" type="curve" smooth="yes"/>
      <point x="554.9204" y="169.012" type="line"/>
      <point x="583.1256000000001" y="169.012" type="line"/>
      <point x="583.1256000000001" y="0.0" type="line"/>
      <point x="60.8596" y="0.0" type="line"/>
      <point x="60.8596" y="37.576" type="line"/>
      <point x="314.9964" y="212.552"/>
      <point x="527.2644" y="361.908"/>
      <point x="527.2644" y="526.77" type="curve" smooth="yes"/>
      <point x="527.2644" y="646.804"/>
      <point x="431.5692" y="688.62"/>
      <point x="327.48760000000004" y="688.62" type="curve" smooth="yes"/>
      <point x="219.6912" y="688.62"/>
      <point x="147.7064" y="645.7579999999999"/>
      <point x="97.81280000000001" y="601.528" type="curve"/>
      <point x="115.3548" y="634.712"/>
      <point x="103.4908" y="640.586"/>
      <point x="131.63080000000002" y="643.586" type="curve"/>
      <point x="131.63080000000002" y="546.126" type="line"/>
      <point x="80.282" y="546.126" type="line"/>
      <point x="80.282" y="636.402" type="line"/>
      <point x="121.38159999999999" y="669.954"/>
      <point x="203.302" y="720.0"/>
    </contour>
  </outline>
</glyph>
<glyph name="zero.slashold" format="2">
  <advance width="650.1600000000001"/>
  <outline>
    <contour>
      <point x="124.6648" y="99.184" type="line"/>
      <point x="545.2616" y="419.528" type="line"/>
      <point x="531.038" y="447.77" type="line"/>
      <point x="107.524" y="124.426" type="line"/>
    </contour>
    <contour>
      <point x="325.08000000000004" y="20.242" type="curve" smooth="yes"/>
      <point x="176.4452" y="20.242"/>
      <point x="91.4548" y="118.782"/>
      <point x="91.4548" y="273.954" type="curve" smooth="yes"/>
      <point x="91.4548" y="427.17199999999997"/>
      <point x="176.4452" y="526.7579999999999"/>
      <point x="325.08000000000004" y="526.7579999999999" type="curve" smooth="yes"/>
      <point x="473.7148" y="526.7579999999999"/>
      <point x="558.7052" y="427.17199999999997"/>
      <point x="558.7052" y="273.954" type="curve" smooth="yes"/>
      <point x="558.7052" y="117.782"/>
      <point x="473.7148" y="20.242"/>
    </contour>
    <contour>
      <point x="325.08000000000004" y="-11.046" type="curve" smooth="yes"/>
      <point x="488.0404" y="-11.046"/>
      <point x="602.8092" y="104.95400000000001"/>
      <point x="602.8092" y="273.954" type="curve" smooth="yes"/>
      <point x="602.8092" y="442.0"/>
      <point x="488.0404" y="558.0"/>
      <point x="325.08000000000004" y="558.0" type="curve" smooth="yes"/>
      <point x="162.0368" y="558.0"/>
      <point x="47.3508" y="442.0"/>
      <point x="47.3508" y="273.954" type="curve" smooth="yes"/>
      <point x="47.3508" y="104.95400000000001"/>
      <point x="162.0368" y="-11.046"/>
    </contour>
  </outline>
</glyph>
